<svg id="base" xmlns="http://www.w3.org/2000/svg" viewBox="0 0 915 234">
  <defs>
    <style>
      .cls-1 {
        fill: #fff;
      }

      .cls-2 {
        fill: red;
      }
    </style>
  </defs>
  <g>
    <path d="M117.06,82.37,98.89,109.05h30.36l-1.38,2.76H97.05q-9.19,15-16.44,25.88T68.42,156.55a133.4,133.4,0,0,0-7.48,13.34,23,23,0,0,0-2.53,9.54q0,4.38,3,6.1a13.54,13.54,0,0,0,6.9,1.72q8.28,0,18.29-6.32a136,136,0,0,0,19.89-15.53,252.81,252.81,0,0,0,18.86-19.55q9-10.35,15.18-18.63l1.38.92Q134.08,138,124.77,149a229.34,229.34,0,0,1-19.21,20A121.74,121.74,0,0,1,85.67,184q-10,6-19,6a18.47,18.47,0,0,1-12.3-4.37q-5.18-4.37-5.18-12.19a29,29,0,0,1,3-11.84A117.07,117.07,0,0,1,60,147.46Q64.85,139.87,71,130.9t12.53-19.09H71.06l1.38-2.76H85.32l17.94-26.68Z"/>
    <path d="M218.49,128.83a201.84,201.84,0,0,1-16,22,141.58,141.58,0,0,1-19.9,19.66A98.09,98.09,0,0,1,159,184.61a69.25,69.25,0,0,1-27.26,5.4,37.52,37.52,0,0,1-10.35-1.38,24.5,24.5,0,0,1-8.39-4.14,20.61,20.61,0,0,1-5.75-7,21.6,21.6,0,0,1-2.19-10A16.8,16.8,0,0,1,109,156.66a12.9,12.9,0,0,1,10.58-4.83,8.84,8.84,0,0,1,5.64,1.73,6.2,6.2,0,0,1,2.18,5.17,9.39,9.39,0,0,1-1.61,5.52,5.48,5.48,0,0,1-4.83,2.3,5.67,5.67,0,0,1-4-1.38,6.5,6.5,0,0,1-2-3.45,7.16,7.16,0,0,0-3.45,4,16.38,16.38,0,0,0-.92,5.4q0,8.06,6.1,12.08a24.28,24.28,0,0,0,13.68,4,17.26,17.26,0,0,0,8.4-1.95,19.16,19.16,0,0,0,6-5.06,20.74,20.74,0,0,0,3.56-7.25,30.68,30.68,0,0,0,1.15-8.28,30.18,30.18,0,0,0-1.49-9.08q-1.5-4.71-3.34-9.32t-3.45-9.08a25,25,0,0,1-1.61-8.4,19.55,19.55,0,0,1,2.07-9.08,20.13,20.13,0,0,1,5.64-6.79,26.6,26.6,0,0,1,8.16-4.25,31,31,0,0,1,9.66-1.5q9.19,0,15,4a12.46,12.46,0,0,1,5.75,10.69q0,6-4.48,8.74a18.73,18.73,0,0,1-10,2.76,30.27,30.27,0,0,0,2.42-6.09,23.65,23.65,0,0,0,1-6.56,10.94,10.94,0,0,0-2.87-7.7Q169,110,163.75,110q-6.67,0-9.89,4a15.12,15.12,0,0,0-3.22,9.77,27.23,27.23,0,0,0,1.73,9.66,95.45,95.45,0,0,0,4,9.2q2.07,4.6,3.8,9.43a32,32,0,0,1,1.72,10.82,19,19,0,0,1-1.95,8.39,28.55,28.55,0,0,1-5.18,7.36,32.39,32.39,0,0,1-7.24,5.63,24.48,24.48,0,0,1-8.17,3l.46.46a66.89,66.89,0,0,0,23.69-7.24,110.62,110.62,0,0,0,21-14.26,152.37,152.37,0,0,0,18.05-18.4,204.12,204.12,0,0,0,14.49-19.67Z"/>
    <path d="M242.87,109.05q-9,12.2-17.25,23.23T210.9,152.52q-6.45,9.21-10.24,16t-3.79,10.69q0,3.69,1.84,5.41a6.75,6.75,0,0,0,4.83,1.72,20.51,20.51,0,0,0,9.54-2.76,66.87,66.87,0,0,0,10.58-7.13,122.47,122.47,0,0,0,10.58-9.66q5.17-5.28,9.66-10.46t7.82-9.55q3.33-4.36,5-6.89l20.24-30.83h15.87q-12.42,17-21,28.87T257.7,158A102.45,102.45,0,0,0,250,171.5a22.81,22.81,0,0,0-2.3,9.08,7.15,7.15,0,0,0,1.61,4.72,5.61,5.61,0,0,0,4.6,1.95q4.59,0,10.58-3.33a81.36,81.36,0,0,0,12.42-8.74A144.12,144.12,0,0,0,289.67,163q6.33-6.78,12-13.46T311.87,137q4.59-5.87,7.13-9.55l2.3.69q-2.76,3.92-7.36,10T303.59,151q-5.76,6.78-12.19,13.8a126.26,126.26,0,0,1-13.23,12.53,87.8,87.8,0,0,1-13.34,9.09,26,26,0,0,1-12.3,3.56q-6.45,0-10.24-3.56a12.48,12.48,0,0,1-3.79-9.55,26.7,26.7,0,0,1,1.49-8.85,38.12,38.12,0,0,1,2.19-5.41l-.46-.46q-4.83,5.52-10.12,10.58A98.41,98.41,0,0,1,221,181.62a56,56,0,0,1-10.7,6.09,27,27,0,0,1-10.69,2.3q-7.37,0-10.58-3.33a11,11,0,0,1-3.22-7.94,29.62,29.62,0,0,1,3.1-12.42,115,115,0,0,1,8.63-14.94q5.52-8.3,13.22-18.64t16.91-23.69Z"/>
    <path d="M395.12,29Q375.35,59.61,361,81.57l-24.38,37.26q-10,15.3-16.1,25t-9.32,15.87a63.9,63.9,0,0,0-4.37,10,25.15,25.15,0,0,0-1.14,7.24,10.36,10.36,0,0,0,2.76,7.48,9.4,9.4,0,0,0,7.12,2.87q8.29,0,17.83-6.9A92.59,92.59,0,0,0,351,163.56a115.46,115.46,0,0,0,13.46-20.47q5.4-10.58,5.41-18.17a11.35,11.35,0,0,0-1.16-4.94,12,12,0,0,1-1.14-5.18,9.33,9.33,0,0,1,1.49-5.4q1.5-2.19,4.94-2.19,3.92,0,6.1,4.14t2.19,10.81a51.9,51.9,0,0,1-.92,10.12,20.12,20.12,0,0,0,6.89,5.29,24,24,0,0,0,23.12-.92,34.81,34.81,0,0,0,9.54-8.51l1.62,1.61a41.19,41.19,0,0,1-9.89,8.63,25.84,25.84,0,0,1-23.69,2.07,34.27,34.27,0,0,1-8.51-5.18,69.15,69.15,0,0,1-10,19.21,99.13,99.13,0,0,1-16.33,17.71,89.33,89.33,0,0,1-19.78,12.88A47.44,47.44,0,0,1,313.93,190a20.64,20.64,0,0,1-13.68-4.71q-5.64-4.71-5.63-13.46a28,28,0,0,1,1.38-8.16,71,71,0,0,1,4.83-11.16q3.44-6.66,9.54-16.56t15.52-24.49q9.44-14.61,22.78-34.73T380,29.47Z"/>
    <path d="M447.1,109.05q-9,12.2-17.25,23.23t-14.72,20.24q-6.44,9.21-10.23,16t-3.8,10.69q0,3.69,1.84,5.41a6.78,6.78,0,0,0,4.83,1.72,20.55,20.55,0,0,0,9.55-2.76,67.33,67.33,0,0,0,10.58-7.13,122.47,122.47,0,0,0,10.58-9.66q5.17-5.28,9.66-10.46t7.82-9.55q3.33-4.36,4.94-6.89l20.24-30.83H497q-12.42,17-21,28.87t-14,20.12a101.57,101.57,0,0,0-7.71,13.46,23,23,0,0,0-2.3,9.08,7.2,7.2,0,0,0,1.61,4.72,5.63,5.63,0,0,0,4.6,1.95q4.61,0,10.58-3.33a80.39,80.39,0,0,0,12.42-8.74A145.59,145.59,0,0,0,493.91,163q6.31-6.78,12-13.46T516.1,137q4.6-5.87,7.13-9.55l2.3.69q-2.76,3.92-7.36,10T507.82,151q-5.74,6.78-12.19,13.8a125.21,125.21,0,0,1-13.22,12.53,88.3,88.3,0,0,1-13.34,9.09A26,26,0,0,1,456.76,190q-6.43,0-10.23-3.56a12.49,12.49,0,0,1-3.8-9.55,26.45,26.45,0,0,1,1.5-8.85,37.28,37.28,0,0,1,2.18-5.41l-.46-.46q-4.83,5.52-10.12,10.58a97.45,97.45,0,0,1-10.58,8.86,56,56,0,0,1-10.69,6.09,27.08,27.08,0,0,1-10.7,2.3q-7.37,0-10.58-3.33a11.06,11.06,0,0,1-3.22-7.94,29.65,29.65,0,0,1,3.11-12.42,114.85,114.85,0,0,1,8.62-14.94q5.52-8.3,13.23-18.64t16.9-23.69Z"/>
    <path d="M546.46,109.05,516.1,151.14l.46.46q4.83-5.74,11.27-13.45a164,164,0,0,1,13.8-14.61,88.06,88.06,0,0,1,15.29-11.61,30.7,30.7,0,0,1,15.76-4.72q6.9,0,10.69,3.8a13.23,13.23,0,0,1,3.8,9.77c0,2.46-.89,5.37-2.65,8.74A109.58,109.58,0,0,1,578,140.33q-3.91,5.76-8.51,11.73T561,163.45q-3.91,5.4-6.56,9.89t-2.64,7.47q0,6.45,6.44,6.44,7.35,0,15.64-4.94t19.78-16.68q4.59-4.59,9.31-10.12T612,144.59q4.37-5.4,7.93-10.24t5.64-8l1.61.92q-4.61,6.9-11.85,16.45t-15.75,18.74q-5.07,5.52-10.35,10.58a98.41,98.41,0,0,1-10.58,8.86,54.57,54.57,0,0,1-10.47,6A26.09,26.09,0,0,1,558,190a16.5,16.5,0,0,1-11-3.68q-4.38-3.68-4.37-10.12,0-6.9,5.52-15.06t12.19-16.45q6.66-8.28,12.19-15.87T578,115.49a4.86,4.86,0,0,0-1.84-4.14A7.86,7.86,0,0,0,571.3,110q-5.76,0-12.88,4.26a85.82,85.82,0,0,0-14.61,11.27,211,211,0,0,0-14.95,15.64q-7.47,8.63-13.91,17.25T503.45,175a128.94,128.94,0,0,0-7.59,13.22H481.6q6-10.11,12.76-20.58t13.46-20.7q6.66-10.23,12.76-19.78t10.93-17.37Z"/>
    <path d="M728.84,130a44.9,44.9,0,0,1-12.42,9.9,28.71,28.71,0,0,1-13.57,3.67,20.4,20.4,0,0,1-11-2.87,22.5,22.5,0,0,1-7.13-6.79h-.46a68,68,0,0,1-8.51,18.63,95.35,95.35,0,0,1-14.83,18.17,85.21,85.21,0,0,1-19,13.8A44.47,44.47,0,0,1,620.74,190q-9.88,0-15-5.75t-5.06-15.41a33.71,33.71,0,0,1,2.53-11.73,68.92,68.92,0,0,1,7-13.45,103,103,0,0,1,10.58-13.34,91.06,91.06,0,0,1,13.22-11.73,67.34,67.34,0,0,1,15.07-8.28,43.53,43.53,0,0,1,16-3.11q9.43,0,14.61,5.52T685.37,127a15.66,15.66,0,0,0,5,9.78q4.48,4.48,12.3,4.48a26,26,0,0,0,13-3.45,49.81,49.81,0,0,0,11.38-9Zm-115.69,44.4q0,6,2.3,9.42a7.73,7.73,0,0,0,6.9,3.45,25.47,25.47,0,0,0,12.31-3.33,55.66,55.66,0,0,0,11.73-8.74,83.32,83.32,0,0,0,10.46-12.3,104.48,104.48,0,0,0,8.4-14.27,94.44,94.44,0,0,0,5.63-14.37A45.5,45.5,0,0,0,673,121.47a13.52,13.52,0,0,0-2.41-8.16c-1.61-2.22-4.11-3.34-7.48-3.34a21.28,21.28,0,0,0-10.35,3.11,63.21,63.21,0,0,0-11.15,8.16A84,84,0,0,0,630.86,133a122.84,122.84,0,0,0-9.08,13.8A77,77,0,0,0,615.45,161,43.73,43.73,0,0,0,613.15,174.38Z"/>
    <path d="M804.51,29,723.09,150l.46.46q4.61-5.74,10.81-13.22a147,147,0,0,1,13.45-14.15,84.82,84.82,0,0,1,15.3-11.27,32.27,32.27,0,0,1,16.1-4.6q14,0,14,14a19.47,19.47,0,0,1-2.65,8.74,90,90,0,0,1-6.67,10.7q-4,5.64-8.62,11.38t-8.63,11.16A96.45,96.45,0,0,0,760,173.34c-1.76,3.14-2.64,5.79-2.64,7.93a6.3,6.3,0,0,0,1.49,4.26,5.06,5.06,0,0,0,4,1.72,25.27,25.27,0,0,0,11.62-3.33,84.69,84.69,0,0,0,13.1-8.74,159,159,0,0,0,13.46-12.08q6.66-6.66,12.31-13.22t10.11-12.42a86.87,86.87,0,0,0,6.56-9.55l1.38.46A116.09,116.09,0,0,1,824.29,139q-4.6,6.21-10.46,13.11t-12.66,13.69a160.52,160.52,0,0,1-13.57,12.19,76.74,76.74,0,0,1-13.45,8.74A28,28,0,0,1,761.73,190a13.4,13.4,0,0,1-9.77-3.68q-3.81-3.68-3.8-10.12a23.74,23.74,0,0,1,2.64-10.12,76.12,76.12,0,0,1,6.67-11.15q4-5.64,8.63-11.27t8.62-10.7a97.43,97.43,0,0,0,6.67-9.31c1.77-2.84,2.65-5.25,2.65-7.25q0-3.68-2.07-5.06a8.92,8.92,0,0,0-5.06-1.38q-5.74,0-12.77,4.26a92.32,92.32,0,0,0-14.48,11.15,180.48,180.48,0,0,0-14.84,15.53q-7.37,8.63-13.91,17.36t-11.5,16.56q-4.95,7.83-7.71,13.34h-15q12.64-19.77,26-40.25t26.56-40.71Q752.53,87,765.18,67.31T789.1,29.7Z"/>
    <path d="M855.57,109.05q-12.66,18.18-21.39,30.59T820,160.34a143.27,143.27,0,0,0-7.82,13.11q-2.41,4.83-2.41,7.82,0,6,4.83,6,4.59,0,10.69-3.33a91.25,91.25,0,0,0,12.77-8.63,156,156,0,0,0,13.34-12q6.66-6.66,12.53-13.22t10.35-12.65a85.14,85.14,0,0,0,6.56-10l1.84,1.15q-2.76,4.6-7.48,11t-10.69,13.23q-6,6.78-12.65,13.45a137,137,0,0,1-13.57,12,80.4,80.4,0,0,1-13.46,8.51A27.6,27.6,0,0,1,812.79,190q-6.21,0-9.2-3.45a11.3,11.3,0,0,1-3-7.59,27.43,27.43,0,0,1,2.18-10.23,93,93,0,0,1,7-13.23q4.83-7.81,12.53-19t18.52-27.49Zm13.34-42.78a7,7,0,0,1,5.29,2.19,8.09,8.09,0,0,1,0,10.81,7.51,7.51,0,0,1-10.58,0,8.09,8.09,0,0,1,0-10.81A7,7,0,0,1,868.91,66.27Z"/>
  </g>
  <path class="cls-1" d="M859.82,63.05a60.61,60.61,0,0,0,6.34,18.63c.66,1.25,3,.75,2.79-.76a65.45,65.45,0,0,1-.2-11.2h-3a14.72,14.72,0,0,1-2.13,9h2.59a18,18,0,0,1-1.43-7.53c.05-2-2.79-1.87-3,0L861,78.39h3a24.56,24.56,0,0,1,2.55-11.69l-2.8-.75a36.27,36.27,0,0,1-.74,9.47l3,.4a25.14,25.14,0,0,1,2-7.52l-2.8-.76c-.23,5.83-.84,11.63-1.45,17.42-.18,1.68,2.6,2.05,2.95.4l4.85-23-2.95-.4-.07,19.22h3q-.18-9.21.14-18.4h-3l1.23,16.21a1.51,1.51,0,0,0,3,.4l3.82-12.5-2.95-.4-1.44,18.61h3q.06-4.47,0-8.93c0-2.49.31-5.42-1-7.65a1.52,1.52,0,0,0-2.74.36,25,25,0,0,0-.94,10.55,1.5,1.5,0,0,0,2.94.4,33.7,33.7,0,0,0,2.26-15.23c-.12-1.38-2-2.16-2.8-.76a21.76,21.76,0,0,0-2.62,11c0,1.64,2.54,2.1,2.95.4a46.19,46.19,0,0,0,.86-12.42c-.06-1.62-2.61-2.13-2.95-.4a102.93,102.93,0,0,0-1.89,23,1.48,1.48,0,0,0,.74,1.3c2,.83,3.15-.52,4.06-2.13A51.92,51.92,0,0,0,876.81,79a51.24,51.24,0,0,0,3.37-11.89A1.51,1.51,0,0,0,877.44,66a44.28,44.28,0,0,0-6.9,20.7,1.51,1.51,0,0,0,2.79.76,59.91,59.91,0,0,0,6-13.63c.56-1.87-2.25-2.59-2.89-.8l-4.61,12.86,2.95.4q-.18-6.84.07-13.68c.14-4,1-8.33-.9-12a1.51,1.51,0,0,0-2.59,0,26.85,26.85,0,0,0-2.29,7.64,1.55,1.55,0,0,0,1,1.84A1.5,1.5,0,0,0,872,69a24.28,24.28,0,0,1,2-6.92h-2.59a10.64,10.64,0,0,1,.73,5.42c-.1,2-.21,4-.28,6.07q-.2,6.33,0,12.68a1.5,1.5,0,0,0,2.94.4l4.61-12.86-2.89-.8a56.49,56.49,0,0,1-5.73,12.91l2.8.76A41.1,41.1,0,0,1,880,67.5l-2.74-1.16a51.86,51.86,0,0,1-2.4,9.42A47.29,47.29,0,0,1,873,80.29c-.32.66-.66,1.31-1,2-.21.39-.42.78-.65,1.16l-.22.38c-.39.35-.23.44.49.28l.74,1.3a99.3,99.3,0,0,1,1.79-22.17l-3-.4a42.7,42.7,0,0,1-.76,11.62l3,.4a18.75,18.75,0,0,1,2.21-9.51l-2.79-.76A31.61,31.61,0,0,1,870.62,79l3,.4a22.87,22.87,0,0,1,.83-9.76l-2.74.36a6.31,6.31,0,0,1,.55,3.16l.06,4c0,2.65,0,5.29,0,7.94,0,2,2.86,1.9,3,0l1.44-18.61c.14-1.74-2.46-2-2.94-.4l-3.82,12.5,2.94.4-1.23-16.21a1.5,1.5,0,0,0-3,0q-.32,9.2-.14,18.4a1.5,1.5,0,0,0,3,0l.07-19.22c0-1.65-2.59-2.09-3-.4l-4.85,23.06,3,.39c.61-5.79,1.22-11.59,1.45-17.42.06-1.41-2.18-2.14-2.79-.76a30,30,0,0,0-2.41,9c-.17,1.68,2.6,2.05,2.95.4A39.81,39.81,0,0,0,866.76,66c-.06-1.39-2.08-2.17-2.79-.76a27.6,27.6,0,0,0-3,13.2,1.5,1.5,0,0,0,3,0l.77-7.19h-3a21.46,21.46,0,0,0,1.84,9,1.51,1.51,0,0,0,2.59,0,17.46,17.46,0,0,0,2.54-10.52,1.5,1.5,0,0,0-3,0,65.45,65.45,0,0,0,.2,11.2l2.8-.75a58,58,0,0,1-6-17.91c-.31-1.91-3.21-1.1-2.9.79Z"/>
  <path class="cls-2" d="M855.74,91.88l-5.68-43.26a33,33,0,0,1-.41-4.33,7.25,7.25,0,0,1,.07-1.23c-.15.86,0,.15.06,0,.28-1.09-.47.53.15-.43a6.65,6.65,0,0,1,.36-.56c-.35.44-.41.54-.19.29.22-.09.34-.45.58-.54l-.4.33c.18-.12.36-.24.54-.34a2.62,2.62,0,0,1,.58-.29l-.47.2.63-.22a13.66,13.66,0,0,1,1.65-.4c.3-.06,1.23-.41.19,0a4.48,4.48,0,0,1,1-.1,37,37,0,0,1,3.94-.06c.32,0,.64,0,1,0s1.08.21.13,0l1.09.26c1.12.27-.75-.37.27.12.85.4-.29-.56.27.18.68.91-.23-.58.07.06.13.26.3.51.43.77-.49-.95,0,.06,0,.28s.12.48.17.72.22,1.4.08.28c.09.74.12,1.48.18,2.23a7.8,7.8,0,0,0,1.93,5,6.45,6.45,0,0,0,4.82,1.93c3.34-.06,6.28-2.27,8.54-4.52.45-.44.9-.87,1.39-1.27-.7.57,0,0,.16-.08s.53-.35.8-.51.66-.36,1-.53c.74-.4.13-.07,0,0,.76-.29,1.54-.45,2.32-.67s-1.06,0,.08,0c.36,0,.73,0,1.09,0s.49,0,.73,0c-1.14-.1,0,0,.24.11s1.33.49.26,0c.19.09.37.17.55.27s.51.31.78.46c.8.46-.58-.58,0,0,.21.21.44.4.64.62l.2.21c.31.37.26.3-.15-.22.21,0,.7,1.08.79,1.26s.21.47.34.68c.32.52-.34-1-.06-.09a18,18,0,0,1,.5,1.78l.06.3c.08.5.08.41,0-.27a2.5,2.5,0,0,1,.06.63,15.06,15.06,0,0,1,0,1.9c0,.21,0,.42,0,.63,0,1.09.22-1,0,.07-.13.62-.25,1.23-.43,1.84-.1.3-.21.6-.31.89s0,.45.09-.21a5.75,5.75,0,0,1-1,1.84,17.83,17.83,0,0,1-1.21,1.77c.51-.66.08-.12,0,0-.35.39-.68.79-1,1.17a31.84,31.84,0,0,1-2.89,2.68q-.46.39-.93.75c.77-.6-.29.2-.37.26-.65.48-1.3.94-2,1.39-5.88,4-12.09,7.52-17.91,11.62s-10.83,8.87-13.64,15.57c-.92,2.17,1,5,3.14,5.53,2.63.6,4.55-.81,5.53-3.14-.4,1,.12-.18.18-.31.17-.34.35-.67.54-1,.34-.6.71-1.18,1.11-1.75.18-.25.36-.51.55-.76-.63.83.15-.15.24-.26.54-.62,1.1-1.22,1.69-1.8a41.86,41.86,0,0,1,3.31-2.92c.13-.11.68-.51,0,0l.93-.7c.74-.54,1.48-1.06,2.23-1.57,5.58-3.78,11.42-7.14,17-11S894.6,65.17,897,58.74c1.93-5.1,1.48-11.78-1.66-16.32a14.31,14.31,0,0,0-17.44-5.05,19.52,19.52,0,0,0-4.79,2.71,23.91,23.91,0,0,0-1.88,1.59c-.28.28-.55.57-.84.84-.11.11-1.18,1-.73.65s-.43.26-.44.27-.72.52-.86.47l.52-.21a4.84,4.84,0,0,1-.54.17c-.85.33,1.06,0,.22,0,0,0,1.21.23.56.05a2.77,2.77,0,0,1,1.72,1.29l.25.64a3.58,3.58,0,0,1-.14-.54c.09.69.11.76.07.2,0-.25,0-.5,0-.74-.28-3.58-1-7.31-3.82-9.84s-6.65-3-10.33-3c-6.52.05-14.2,1.81-15.85,9.18-.92,4.07.16,8.43.7,12.48l1.67,12.79,3.36,25.56c.3,2.32,1.85,4.61,4.5,4.5,2.17-.1,4.82-2,4.5-4.5Z"/>
</svg>
