<svg xmlns="http://www.w3.org/2000/svg" viewBox="0 0 1366 768" class="" style="">
  <g id="mask">
    <path id="pas1" class="cls-1 MSGWpPAx_0" d="M309.44,358.05s48.07,20.36,56.81,0c9.25-21.55-22.75-26.55-22.75-26.55l-50,80s-13.34,24.35,11.43,24.3a38.86,38.86,0,0,0,24.17-8.73c11.53-9.25,33.65-25.73,46.42-48.85,3.42-6-12.93,16.63-23.53,31.4-8.18,11.41-.23,27.55,13.81,27.62,6.19,0,13.74-2.51,22.7-9.74,17.82-20.91-35.44-60.65,10-69.13a19.55,19.55,0,0,1,14.71,3c5.43,3.78,9.22,10.57-4.69,21.11"></path>
    <path id="pas2" class="cls-1 MSGWpPAx_1" d="M370.5,437.5s69-15,98-78c0,0-24,38-39,59-8.54,12,4.61,25.94,23,13,13.73-9.67,35-31,68-73,0,0-25,36.19-35.45,59.12-.63,1.39-1.33,2.75-2.08,4.08-7.15,12.67,4.76,25.53,28.53,7.8,10.62-7.92,32.7-42.91,53-62,5.85-5.5-4.07,6.4.34-.31L620.5,282.5l-66,104-11.85,17.43a28.6,28.6,0,0,0-4.15,23.71c3.38,12,15,21.44,52.29-10.16A45.42,45.42,0,0,0,606.72,389c1.25-9.52-.44-20.73-9.22-31.48,11.48,2.1,10.77,53.29,60.38,19.64,14.62-13.64,17.17-16.44,17.17-16.44L635,414.83A18.18,18.18,0,0,0,631.74,430c2.08,8.1,10.26,14.68,38.9-6.62a21.88,21.88,0,0,0,3.84-3.67c46.11-56.44,50-64.25,50-64.25l-37.29,55.44a20.85,20.85,0,0,0-2.34,19.12c3.15,8.12,11.48,13.77,33.27-5.88C755.5,390.5,772,360.7,772,360.7l-46.45,76.47S811.24,325.28,818.08,364a13.66,13.66,0,0,1-2.54,10.48l-17.35,23.35a69,69,0,0,0-11.67,24.28c-3.63,14.48-1.84,29.14,35.16.94a72.8,72.8,0,0,0,10.07-9.31c38.07-42.57,28.75-33.25,28.75-33.25s31-42,55-16c0,0-27-42-74,47,0,0-4.59,38.28,29.09,23.06a65.84,65.84,0,0,0,27.84-24.14,119,119,0,0,0,17.07-41.1s7,38.85,48.5,8.51c19.57-19.32,17.78-20,66-95.33L937.81,432.17s91.33-122,92.41-67.95a38.9,38.9,0,0,1-11.59,28.23c-9.59,9.58-22.88,26.07-25.88,32.62A7.41,7.41,0,0,0,998,435.42c19.18,4,44.34-21.16,80.21-74.62,6.45-6.23-23.22,34.48-36.14,53.58a20.62,20.62,0,0,0-3.65,11.34c0,6.29,2.9,13.44,17.88,9.89a49.33,49.33,0,0,0,22-11.88c13.25-12.26,36.21-35.89,40.19-46.23"></path>
    <path id="pas3" class="cls-1 MSGWpPAx_2" d="M1090.73,331.5L1095.5,344.5"></path>
    <path id="pas4" class="cls-1 MSGWpPAx_3" d="M1118.5,435.28L1123.5,435.5"></path>
  </g>
<style data-made-with="vivus-instant">.MSGWpPAx_0{stroke-dasharray:557 559;stroke-dashoffset:558;}.start .MSGWpPAx_0{animation:MSGWpPAx_draw_0 7300ms ease 0ms infinite,MSGWpPAx_fade 7300ms linear 0ms infinite;}.MSGWpPAx_1{stroke-dasharray:3071 3073;stroke-dashoffset:3072;}.start .MSGWpPAx_1{animation:MSGWpPAx_draw_1 7300ms ease 0ms infinite,MSGWpPAx_fade 7300ms linear 0ms infinite;}.MSGWpPAx_2{stroke-dasharray:14 16;stroke-dashoffset:15;}.start .MSGWpPAx_2{animation:MSGWpPAx_draw_2 7300ms ease 0ms infinite,MSGWpPAx_fade 7300ms linear 0ms infinite;}.MSGWpPAx_3{stroke-dasharray:6 8;stroke-dashoffset:7;}.start .MSGWpPAx_3{animation:MSGWpPAx_draw_3 7300ms ease 0ms infinite,MSGWpPAx_fade 7300ms linear 0ms infinite;}@keyframes MSGWpPAx_draw{100%{stroke-dashoffset:0;}}@keyframes MSGWpPAx_fade{0%{stroke-opacity:1;}94.52054794520548%{stroke-opacity:1;}100%{stroke-opacity:0;}}@keyframes MSGWpPAx_draw_0{12.32876712328767%{stroke-dashoffset: 558}18.60793110174196%{ stroke-dashoffset: 0;}100%{ stroke-dashoffset: 0;}}@keyframes MSGWpPAx_draw_1{18.60793110174196%{stroke-dashoffset: 3072}53.177091929361275%{ stroke-dashoffset: 0;}100%{ stroke-dashoffset: 0;}}@keyframes MSGWpPAx_draw_2{53.177091929361275%{stroke-dashoffset: 15}53.34588665996489%{ stroke-dashoffset: 0;}100%{ stroke-dashoffset: 0;}}@keyframes MSGWpPAx_draw_3{53.34588665996489%{stroke-dashoffset: 7}53.42465753424658%{ stroke-dashoffset: 0;}100%{ stroke-dashoffset: 0;}}</style></svg>
