<svg id="mask" xmlns="http://www.w3.org/2000/svg" viewBox="0 0 1366 768">
  <defs>
    <style>
      .cls-1 {
        fill: none;
        stroke: #ed1c24;
        stroke-miterlimit: 10;
        stroke-width: 14px;
      }

      .cls-2 {
        fill: #ed1c24;
      }
    </style>
  </defs>
  <path id="mask1" class="cls-1" d="M356,326l-63,97s-9.51,17.63,21.75,14.32S390,362,390,362s9.17-16.85,27-1a7.84,7.84,0,0,1,2.52,4.55A29.38,29.38,0,0,1,420,374"/>
  <path id="mask2" class="cls-1" d="M385,370s29,58.81-5.39,64.56C365,437,339.5,431,351,408c6-12,13,1,13,1"/>
  <path id="mask3" class="cls-1" d="M386.74,435.06S420,427,450,389l21-28,4-4-41,58s-12.88,24,16.56,20c33.44-28,73.57-78,73.57-78L483,425s-9,19,19,8,47-42,47-42l77-113L541,419s-9,26,27,13c25-13,54-49,43-73l10,15s15.26,32.18,37.29,7.87L679,359l-46,66s0,17,25,8c28-24,68.8-75.79,68.8-75.79L687,424s-10.14,20.13,20.43,11.06c28.57-23.06,71-77.35,71-77.35l-52,77.77L767.69,386S829,323,822,377c-27,31-35,46-35,46s-8,20,24,10c24-18,80.34-96.59,97.67-75.29C909,358,872,342,846,416c10,56,81-20,74-40s-7.75-18.29-7.75-18.29S925,407,968,382c37-60,68.37-105.68,68.37-105.68L934.14,435.48,983,377s52-48,42,0c-16,19-32,45-32,45s-6,19,18,12,73-76,73-76l-39,67s-4.19,13,15.4,10.48,60.7-60.72,60.7-60.72"/>
  <line id="mask4" class="cls-1" x1="312.68" y1="356.36" x2="368.11" y2="359.12"/>
  <g id="ten1">
    <path class="cls-2" d="M1107.9,332.27a12.37,12.37,0,0,0,8.48-3.51,12.23,12.23,0,0,0,3.52-8.49c-.3-6.5-5.28-12-12-12a12.38,12.38,0,0,0-8.49,3.52,12.17,12.17,0,0,0-3.51,8.48c.29,6.51,5.27,12,12,12Z"/>
  </g>
  <g id="ten2">
    <path class="cls-2" d="M1118.23,438.59a12.38,12.38,0,0,0,8.49-3.52,12.15,12.15,0,0,0,3.51-8.48c-.29-6.5-5.27-12-12-12a12.37,12.37,0,0,0-8.48,3.51,12.23,12.23,0,0,0-3.52,8.49c.29,6.5,5.27,12,12,12Z"/>
  </g>
</svg>
