<svg id="mask" xmlns="http://www.w3.org/2000/svg" viewBox="0 0 915 234">
  <defs>
    <style>
      .cls-1, .cls-2, .cls-3 {
        fill: none;
        stroke: #fff;
      }

      .cls-1 {
        stroke-width: 16px;
      }

      .cls-2 {
        stroke-width: 5px;
      }

      .cls-3 {
        stroke-width: 11px;
      }
    </style>
  </defs>
  <path id="mask1" class="cls-1" d="M138,37,65,149c-.06.1-12,23.06-12.07,23.17-.8,2.1-7.93,22.57,22.75,13.93,21.18-6,41.37-30.31,54.59-44.84,7.9-8.68,8.66-5,3.18,1.92L121,163c-.73,1.65,2.31-2.54,1.88-4.3-.92-3.74-4.07-6.25-12.67-2.57a1.91,1.91,0,0,0-1.16,1.8c.5,23-11.53,25.56,26.74,30.22a2,2,0,0,0,1.07-.17c13.46-6.4,28.29-24.19,9.13-52.64a1.77,1.77,0,0,1-.29-.74c-.88-6.15-4.83-19.49,13.59-25a1.91,1.91,0,0,1,.67-.06c3.32.29,36-.51,13,22.28a1.87,1.87,0,0,1-2.88-.32c-2-3.15-6-9.49-8.64-13.62a1.87,1.87,0,0,0-3.41.63l-13.67,66a1.87,1.87,0,0,0,2.13,2.23c7.53-1.23,29.3-6.27,42.42-24.48C205,140,238,105,238,105l-46.72,71.06c-1.32,2-4.51,5.52-2.4,6.65C195,186,194,194,217.13,181.07a14.3,14.3,0,0,0,2.62-1.89c11.09-10.05,38.85-41,57.27-61.78,1.54-1.74,19.25-19.34,18-17.4l-51.7,75.54a1.92,1.92,0,0,0-.31,1c0,3.39,1.11,20.21,20.43,8a16.12,16.12,0,0,1,2.11-1.08c9.89-4.32,29.09-28.43,29.09-28.43L391.47,23.58a.46.46,0,0,1,.75.52L302.54,163.5a18.82,18.82,0,0,0-1.77,17.31c3.2,7.77,11.9,14.19,35.23.19,40-24,55.11-73.29,22.56-82.65-32-9.2,22.7,36.32,24.49,37.81a.31.31,0,0,1,.09.07c.86.86,17.42,16.61,39.29-6.41l.13-.14C439,109,451,93,451,93l-53.45,74.44C396,172,394.07,174.9,395,179c1.28,5.68,6,8,22.32,4.57C446.68,177.41,498,99,497,98s-46.13,71.05-50.64,78.24a1.86,1.86,0,0,0-.25,1.3c.64,3.68,4.57,19.66,22.61,6.38,17-12.52,47.64-38.45,69.77-74.46,4.34-7.06,2.47-10.68-3.34-1.68C501,160.69,481.6,199.84,481.6,199.84S542,104,574,106c27.11,1.69-10.88,46.89-23.32,60.92a16.21,16.21,0,0,0-4.1,12c.6,7.67,4.87,16.57,24.38,5,27.83-16.57,34.6-25.2,35.45-26.38a1.43,1.43,0,0,0,.15-.27c1.29-2.65,22.93-46.36,55.31-48.35a1.87,1.87,0,0,1,.81,3.61c-19,7.07-62,27.26-53.78,67a1.91,1.91,0,0,0,.42.84c2.36,2.73,17.88,18.42,42.68-6.38,27-27,34-59,22-60s-1,11.91-1,11.91,25.95,33,52.4,9.23a1.93,1.93,0,0,0,.27-.3c22.56-31.12,75-112.68,75-112.68l-108.78,170a.21.21,0,0,0,.34.25l48.56-58.12s40-44.9,47-22.37a1.91,1.91,0,0,0,1.18,1.19c2.29.8,5.91,6.78-30.14,49.5a25.61,25.61,0,0,0-6.16,15.07c-.42,7.93,3.34,15.66,24.74,4.65C813,164,853,101,853,101L806,177l-.06.11c-.6,1.14-8.8,17.71,23,7.5C862,174,885,122,885,122"/>
  <line id="mask2" class="cls-2" x1="70" y1="110.5" x2="130" y2="110.82"/>
  <path class="cls-3" d="M851.5,99.5l-.27-2.13L844.5,40.5s13.35-11,21.18,0l1.82,8,11.23-6.61s22.19-4.66,13.77,18.61c0,0-40.62,29.67-42,34"/>
</svg>
