<svg id="レイヤー_1" data-name="レイヤー 1" xmlns="http://www.w3.org/2000/svg" viewBox="0 0 258.46 93.53">
  <defs>
    <style>
      .cls-1 {
        fill: #b3b3b3;
      }

      .cls-2 {
        font-size: 40px;
        fill: #fff;
        font-family: NotoSansCJKjp-Bold-83pv-RKSJ-H, Noto Sans CJK JP;
        letter-spacing: 0.1em;
      }
    </style>
  </defs>
  <g>
    <rect class="cls-1" x="1.5" y="1.5" width="255" height="91" rx="11.75"/>
    <path d="M244.75,3A10.26,10.26,0,0,1,255,13.25v67.5A10.26,10.26,0,0,1,244.75,91H13.25A10.26,10.26,0,0,1,3,80.75V13.25A10.26,10.26,0,0,1,13.25,3h231.5m0-3H13.25A13.25,13.25,0,0,0,0,13.25v67.5A13.25,13.25,0,0,0,13.25,94h231.5A13.25,13.25,0,0,0,258,80.75V13.25A13.25,13.25,0,0,0,244.75,0Z"/>
  </g>
  <text class="cls-2" transform="translate(66.72 60.34)">PUSH</text>
</svg>
